<svg id="Layer_1" data-name="Layer 1" xmlns="http://www.w3.org/2000/svg" viewBox="0 0 521.57 102.5"><defs><style>.cls-1{fill:#fff;}.cls-1,.cls-2{fill-rule:evenodd;}.cls-2{fill:#e71332;}</style></defs><title>baltas</title><polygon class="cls-1" points="0 1.66 28.6 1.66 65.79 56.42 65.79 1.66 94.74 1.66 94.74 100.83 65.79 100.83 28.81 46.38 0 1.66"/><polygon class="cls-2" points="28.81 56.78 28.81 100.83 0 100.83 0 12.07 28.81 56.78"/><polygon class="cls-1" points="200.74 1.66 232.76 1.66 255.11 73.04 277.13 1.66 308.23 1.66 271.41 100.83 238.21 100.83 200.74 1.66"/><path class="cls-1" d="M408.79,2.88H439.4V62a49.73,49.73,0,0,1-2.75,16.57,35.76,35.76,0,0,1-8.59,13.67,34.5,34.5,0,0,1-12.26,8.22q-8.93,3.29-21.45,3.3a136.21,136.21,0,0,1-15.79-1,41.16,41.16,0,0,1-14.31-4,35.59,35.59,0,0,1-10.5-8.54,31.36,31.36,0,0,1-6.53-11.43A59.15,59.15,0,0,1,344.39,62V2.88H375V63.36q0,8.1,4.48,12.65t12.47,4.57q7.86,0,12.37-4.5t4.48-12.72Z" transform="translate(-22.68 -1.22)"/><path class="cls-1" d="M454.36,69.25l29.09-1.82c.62,4.71,1.92,8.31,3.86,10.76q4.74,6,13.53,6c4.36,0,7.73-1,10.09-3.07a8.86,8.86,0,0,0,.21-14c-2.24-2-7.46-3.92-15.65-5.75q-20.15-4.5-28.72-12a24.13,24.13,0,0,1-8.66-19.11,25.9,25.9,0,0,1,4.43-14.4Q467,9,475.85,5.09t24.38-3.88q19,0,29,7.09t11.87,22.51l-28.81,1.71c-.76-4.5-2.38-7.78-4.82-9.81s-5.86-3.07-10.18-3.07c-3.55,0-6.26.76-8.06,2.26a6.94,6.94,0,0,0-2.7,5.52,5.58,5.58,0,0,0,2.19,4.25c1.41,1.32,4.83,2.52,10.23,3.65q20.08,4.33,28.74,8.77c5.79,3,10,6.6,12.65,11a27.87,27.87,0,0,1,3.95,14.68A31.55,31.55,0,0,1,539,87.35a33.09,33.09,0,0,1-14.75,12.21q-9.45,4.16-23.85,4.16-25.28,0-35-9.74t-11-24.72" transform="translate(-22.68 -1.22)"/><polygon class="cls-1" points="109.35 100.83 141.37 100.83 163.72 29.46 185.74 100.83 216.84 100.83 180.02 1.66 146.82 1.66 109.35 100.83"/></svg>