<svg width="1840" height="1760" viewBox="0 0 1840 1760" fill="none" xmlns="http://www.w3.org/2000/svg">
<rect width="1840" height="1760" fill="white"/>
<g opacity="0.3" clip-path="url(#clip0_6_2)">
<path fill-rule="evenodd" clip-rule="evenodd" d="M167 142.729H247.99L353.306 298.728V142.729L435.288 142.729V425.243H353.306L248.585 270.126L167 142.729Z" fill="#B2B2B2"/>
<path fill-rule="evenodd" clip-rule="evenodd" d="M248.585 299.754V425.243H167V172.385L248.585 299.754Z" fill="#E71332"/>
<path fill-rule="evenodd" clip-rule="evenodd" d="M735.462 142.729H826.138L889.429 346.075L951.786 142.729L1039.86 142.729L935.588 425.243H841.571L735.462 142.729Z" fill="#B2B2B2"/>
<path fill-rule="evenodd" clip-rule="evenodd" d="M1260.4 142.729L1347.08 142.729V311.149C1347.17 327.214 1344.53 343.176 1339.29 358.353C1334.24 373.03 1325.92 386.35 1314.97 397.296C1305.21 407.53 1293.37 415.518 1280.25 420.713C1263.39 426.961 1243.14 430.095 1219.51 430.114C1204.56 430.037 1189.63 429.086 1174.79 427.265C1160.71 425.971 1146.98 422.11 1134.27 415.87C1122.9 409.749 1112.81 401.49 1104.54 391.541C1096.15 382.126 1089.85 371.028 1086.04 358.98C1081.09 343.508 1078.39 327.398 1078.03 311.149V142.729H1164.71V315.023C1164.71 330.407 1168.94 342.419 1177.4 351.06C1185.86 359.702 1197.63 364.041 1212.71 364.079C1227.55 364.079 1239.23 359.806 1247.74 351.26C1256.26 342.713 1260.48 330.635 1260.43 315.023L1260.4 142.729Z" fill="#B2B2B2"/>
<path fill-rule="evenodd" clip-rule="evenodd" d="M1389.45 331.803L1471.82 326.618C1473.58 340.036 1477.26 350.291 1482.76 357.271C1491.7 368.666 1504.48 374.363 1521.07 374.363C1533.42 374.363 1542.96 371.515 1549.64 365.618C1552.7 363.304 1555.19 360.318 1556.93 356.887C1558.66 353.456 1559.59 349.671 1559.65 345.823C1559.71 341.974 1558.89 338.163 1557.26 334.681C1555.63 331.199 1553.23 328.139 1550.24 325.735C1543.89 320.037 1529.11 314.567 1505.92 309.354C1467.88 300.808 1440.77 289.413 1424.59 275.169C1416.69 268.537 1410.38 260.197 1406.14 250.77C1401.89 241.344 1399.82 231.075 1400.07 220.729C1400.11 206.106 1404.48 191.828 1412.61 179.706C1421.03 166.678 1433.59 156.451 1450.3 149.025C1467.01 141.599 1490.02 137.915 1519.34 137.972C1555.21 137.972 1582.59 144.704 1601.47 158.169C1620.34 171.635 1631.55 193.01 1635.08 222.295L1553.49 227.167C1551.34 214.347 1546.75 205.003 1539.85 199.22C1532.94 193.437 1523.25 190.475 1511.02 190.475C1500.96 190.475 1493.29 192.64 1488.19 196.913C1485.8 198.767 1483.87 201.151 1482.55 203.878C1481.22 206.605 1480.54 209.602 1480.55 212.638C1480.62 214.992 1481.22 217.3 1482.29 219.394C1483.37 221.488 1484.89 223.316 1486.75 224.745C1490.74 228.506 1500.43 231.924 1515.72 235.143C1553.63 243.367 1580.76 251.695 1597.1 260.127C1613.5 268.674 1625.42 278.929 1632.93 291.464C1640.44 304.092 1644.31 318.57 1644.11 333.284C1644.16 351.102 1638.95 368.535 1629.13 383.365C1618.92 398.848 1604.39 410.949 1587.36 418.149C1569.52 426.05 1547.01 430 1519.82 430C1472.1 430 1439.06 420.751 1420.71 402.253C1402.36 383.755 1391.98 360.281 1389.56 331.831" fill="#B2B2B2"/>
<path fill-rule="evenodd" clip-rule="evenodd" d="M476.661 425.243H567.336L630.628 221.925L692.985 425.243H781.055L676.787 142.729H582.77L476.661 425.243Z" fill="#B2B2B2"/>
</g>
<g clip-path="url(#clip1_6_2)">
<g opacity="0.8">
<path opacity="0.8" d="M1254.49 537.549L1220.7 503.112L585.509 1150.54L619.295 1184.97L667.08 1136.27H1158.92C1171.59 1136.25 1183.73 1131.12 1192.69 1121.99C1201.65 1112.86 1206.69 1100.48 1206.71 1087.57V586.253L1254.49 537.549ZM1158.92 1087.57H714.864L901.054 897.789L957.888 955.716C966.85 964.849 979.004 969.981 991.677 969.981C1004.35 969.981 1016.5 964.849 1025.46 955.716L1063.35 917.1L1158.92 1014.44V1087.57ZM1158.92 945.549L1097.14 882.576C1088.18 873.443 1076.03 868.311 1063.35 868.311C1050.68 868.311 1038.53 873.443 1029.56 882.576L991.677 921.196L934.885 863.309L1158.92 634.958V945.549Z" fill="black"/>
<path opacity="0.8" d="M681.577 990.344V917.194L800.99 795.36L833.788 828.846L867.603 794.319L834.764 760.792C825.807 751.646 813.657 746.509 800.99 746.509C788.322 746.509 776.172 751.646 767.215 760.792L681.577 848.228V600.21H1063.7V551.444H681.577C668.912 551.457 656.77 556.599 647.815 565.741C638.86 574.884 633.824 587.281 633.811 600.21V990.344H681.577Z" fill="black"/>
<path opacity="0.8" d="M753.209 1211.91V1283H738.561L709.996 1235.34V1283H695.348V1211.91H709.996L738.609 1259.61V1211.91H753.209ZM762.828 1257.12V1256.1C762.828 1252.22 763.382 1248.66 764.488 1245.4C765.595 1242.11 767.206 1239.27 769.322 1236.86C771.438 1234.45 774.042 1232.58 777.135 1231.24C780.227 1229.88 783.775 1229.19 787.779 1229.19C791.783 1229.19 795.348 1229.88 798.473 1231.24C801.598 1232.58 804.218 1234.45 806.334 1236.86C808.482 1239.27 810.11 1242.11 811.217 1245.4C812.324 1248.66 812.877 1252.22 812.877 1256.1V1257.12C812.877 1260.96 812.324 1264.53 811.217 1267.81C810.11 1271.07 808.482 1273.92 806.334 1276.36C804.218 1278.77 801.614 1280.64 798.521 1281.97C795.429 1283.31 791.881 1283.98 787.877 1283.98C783.873 1283.98 780.309 1283.31 777.184 1281.97C774.091 1280.64 771.471 1278.77 769.322 1276.36C767.206 1273.92 765.595 1271.07 764.488 1267.81C763.382 1264.53 762.828 1260.96 762.828 1257.12ZM776.891 1256.1V1257.12C776.891 1259.33 777.086 1261.4 777.477 1263.32C777.867 1265.24 778.486 1266.94 779.332 1268.4C780.211 1269.83 781.35 1270.96 782.75 1271.77C784.15 1272.58 785.859 1272.99 787.877 1272.99C789.83 1272.99 791.507 1272.58 792.906 1271.77C794.306 1270.96 795.429 1269.83 796.275 1268.4C797.122 1266.94 797.74 1265.24 798.131 1263.32C798.554 1261.4 798.766 1259.33 798.766 1257.12V1256.1C798.766 1253.95 798.554 1251.93 798.131 1250.04C797.74 1248.12 797.105 1246.43 796.227 1244.96C795.38 1243.47 794.257 1242.29 792.857 1241.45C791.458 1240.6 789.765 1240.18 787.779 1240.18C785.794 1240.18 784.101 1240.6 782.701 1241.45C781.334 1242.29 780.211 1243.47 779.332 1244.96C778.486 1246.43 777.867 1248.12 777.477 1250.04C777.086 1251.93 776.891 1253.95 776.891 1256.1ZM862.877 1211.91V1283H848.277V1211.91H862.877ZM889.781 1241.11V1283H875.67V1230.17H888.902L889.781 1241.11ZM887.828 1254.73H883.922C883.922 1251.05 884.361 1247.66 885.24 1244.57C886.152 1241.45 887.47 1238.75 889.195 1236.47C890.953 1234.16 893.118 1232.37 895.689 1231.1C898.261 1229.83 901.24 1229.19 904.625 1229.19C906.969 1229.19 909.117 1229.55 911.07 1230.27C913.023 1230.95 914.7 1232.04 916.1 1233.54C917.532 1235 918.639 1236.92 919.42 1239.3C920.201 1241.64 920.592 1244.46 920.592 1247.75V1283H906.529V1249.31C906.529 1246.9 906.204 1245.04 905.553 1243.74C904.902 1242.44 903.974 1241.53 902.77 1241.01C901.598 1240.49 900.182 1240.23 898.521 1240.23C896.699 1240.23 895.104 1240.6 893.736 1241.35C892.402 1242.1 891.295 1243.14 890.416 1244.47C889.537 1245.78 888.886 1247.31 888.463 1249.06C888.04 1250.82 887.828 1252.71 887.828 1254.73ZM919.273 1253.12L914.244 1253.75C914.244 1250.3 914.667 1247.1 915.514 1244.13C916.393 1241.17 917.678 1238.57 919.371 1236.32C921.096 1234.07 923.229 1232.33 925.768 1231.1C928.307 1229.83 931.236 1229.19 934.557 1229.19C937.096 1229.19 939.407 1229.57 941.49 1230.31C943.574 1231.03 945.348 1232.19 946.812 1233.78C948.31 1235.34 949.449 1237.39 950.23 1239.93C951.044 1242.47 951.451 1245.58 951.451 1249.26V1283H937.34V1249.26C937.34 1246.82 937.014 1244.96 936.363 1243.69C935.745 1242.39 934.833 1241.5 933.629 1241.01C932.457 1240.49 931.057 1240.23 929.43 1240.23C927.737 1240.23 926.256 1240.57 924.986 1241.25C923.717 1241.9 922.659 1242.81 921.812 1243.99C920.966 1245.16 920.331 1246.53 919.908 1248.09C919.485 1249.62 919.273 1251.29 919.273 1253.12ZM990.855 1271.09V1247.55C990.855 1245.86 990.579 1244.41 990.025 1243.21C989.472 1241.97 988.609 1241.01 987.438 1240.32C986.298 1239.64 984.817 1239.3 982.994 1239.3C981.432 1239.3 980.081 1239.58 978.941 1240.13C977.802 1240.65 976.923 1241.41 976.305 1242.42C975.686 1243.4 975.377 1244.56 975.377 1245.89H961.314C961.314 1243.64 961.835 1241.51 962.877 1239.49C963.919 1237.48 965.432 1235.7 967.418 1234.17C969.404 1232.61 971.764 1231.39 974.498 1230.51C977.265 1229.63 980.357 1229.19 983.775 1229.19C987.877 1229.19 991.523 1229.88 994.713 1231.24C997.903 1232.61 1000.41 1234.66 1002.23 1237.39C1004.09 1240.13 1005.02 1243.55 1005.02 1247.65V1270.26C1005.02 1273.15 1005.19 1275.53 1005.55 1277.38C1005.91 1279.21 1006.43 1280.8 1007.12 1282.17V1283H992.906C992.223 1281.57 991.702 1279.78 991.344 1277.63C991.018 1275.45 990.855 1273.27 990.855 1271.09ZM992.711 1250.82L992.809 1258.78H984.947C983.092 1258.78 981.48 1258.99 980.113 1259.42C978.746 1259.84 977.623 1260.44 976.744 1261.22C975.865 1261.97 975.214 1262.85 974.791 1263.86C974.4 1264.87 974.205 1265.98 974.205 1267.18C974.205 1268.38 974.482 1269.47 975.035 1270.45C975.589 1271.4 976.386 1272.14 977.428 1272.7C978.469 1273.22 979.69 1273.48 981.09 1273.48C983.206 1273.48 985.045 1273.06 986.607 1272.21C988.17 1271.36 989.374 1270.32 990.221 1269.08C991.1 1267.85 991.555 1266.68 991.588 1265.57L995.299 1271.53C994.778 1272.86 994.062 1274.24 993.15 1275.68C992.271 1277.11 991.148 1278.46 989.781 1279.73C988.414 1280.97 986.77 1281.99 984.85 1282.8C982.929 1283.59 980.65 1283.98 978.014 1283.98C974.661 1283.98 971.617 1283.31 968.883 1281.97C966.181 1280.61 964.033 1278.74 962.438 1276.36C960.875 1273.95 960.094 1271.22 960.094 1268.16C960.094 1265.39 960.615 1262.93 961.656 1260.78C962.698 1258.63 964.228 1256.83 966.246 1255.36C968.297 1253.87 970.852 1252.74 973.912 1251.99C976.972 1251.21 980.52 1250.82 984.557 1250.82H992.711ZM1049.3 1230.17H1062.05V1281.24C1062.05 1286.06 1060.97 1290.15 1058.82 1293.5C1056.71 1296.88 1053.75 1299.44 1049.94 1301.16C1046.13 1302.92 1041.7 1303.8 1036.66 1303.8C1034.44 1303.8 1032.1 1303.51 1029.62 1302.92C1027.18 1302.34 1024.84 1301.42 1022.59 1300.19C1020.38 1298.95 1018.52 1297.39 1017.03 1295.5L1023.23 1287.2C1024.86 1289.09 1026.74 1290.55 1028.89 1291.59C1031.04 1292.67 1033.42 1293.21 1036.02 1293.21C1038.56 1293.21 1040.71 1292.73 1042.47 1291.79C1044.22 1290.88 1045.58 1289.53 1046.52 1287.74C1047.46 1285.98 1047.94 1283.85 1047.94 1281.34V1242.38L1049.3 1230.17ZM1013.76 1257.22V1256.19C1013.76 1252.16 1014.24 1248.49 1015.22 1245.21C1016.23 1241.89 1017.65 1239.04 1019.47 1236.66C1021.32 1234.29 1023.57 1232.45 1026.21 1231.14C1028.84 1229.84 1031.82 1229.19 1035.14 1229.19C1038.66 1229.19 1041.6 1229.84 1043.98 1231.14C1046.36 1232.45 1048.31 1234.3 1049.84 1236.71C1051.37 1239.09 1052.56 1241.9 1053.4 1245.16C1054.28 1248.38 1054.97 1251.91 1055.46 1255.75V1258C1054.97 1261.68 1054.23 1265.1 1053.26 1268.25C1052.28 1271.41 1051 1274.18 1049.4 1276.55C1047.81 1278.9 1045.82 1280.72 1043.44 1282.02C1041.1 1283.33 1038.3 1283.98 1035.04 1283.98C1031.79 1283.98 1028.84 1283.31 1026.21 1281.97C1023.6 1280.64 1021.37 1278.77 1019.52 1276.36C1017.66 1273.95 1016.23 1271.12 1015.22 1267.86C1014.24 1264.61 1013.76 1261.06 1013.76 1257.22ZM1027.82 1256.19V1257.22C1027.82 1259.4 1028.03 1261.43 1028.45 1263.32C1028.88 1265.21 1029.53 1266.89 1030.41 1268.35C1031.32 1269.78 1032.44 1270.91 1033.78 1271.72C1035.14 1272.5 1036.75 1272.89 1038.61 1272.89C1041.18 1272.89 1043.28 1272.36 1044.91 1271.28C1046.54 1270.17 1047.76 1268.66 1048.57 1266.74C1049.38 1264.82 1049.86 1262.61 1049.99 1260.1V1253.7C1049.92 1251.65 1049.64 1249.81 1049.16 1248.19C1048.67 1246.53 1047.98 1245.11 1047.11 1243.94C1046.23 1242.77 1045.09 1241.85 1043.69 1241.2C1042.29 1240.55 1040.63 1240.23 1038.71 1240.23C1036.85 1240.23 1035.24 1240.65 1033.87 1241.5C1032.54 1242.31 1031.42 1243.43 1030.5 1244.87C1029.62 1246.3 1028.96 1247.99 1028.5 1249.94C1028.05 1251.86 1027.82 1253.95 1027.82 1256.19ZM1097.3 1283.98C1093.2 1283.98 1089.52 1283.33 1086.27 1282.02C1083.01 1280.69 1080.24 1278.85 1077.96 1276.51C1075.72 1274.16 1073.99 1271.44 1072.79 1268.35C1071.58 1265.23 1070.98 1261.91 1070.98 1258.39V1256.44C1070.98 1252.43 1071.55 1248.77 1072.69 1245.45C1073.83 1242.13 1075.46 1239.25 1077.57 1236.81C1079.72 1234.37 1082.33 1232.5 1085.39 1231.19C1088.45 1229.86 1091.9 1229.19 1095.74 1229.19C1099.48 1229.19 1102.8 1229.81 1105.7 1231.05C1108.6 1232.28 1111.02 1234.04 1112.97 1236.32C1114.96 1238.6 1116.46 1241.33 1117.47 1244.52C1118.48 1247.68 1118.98 1251.2 1118.98 1255.07V1260.93H1076.99V1251.55H1105.16V1250.48C1105.16 1248.53 1104.8 1246.79 1104.09 1245.26C1103.4 1243.69 1102.36 1242.46 1100.96 1241.54C1099.56 1240.63 1097.77 1240.18 1095.59 1240.18C1093.74 1240.18 1092.14 1240.58 1090.81 1241.4C1089.47 1242.21 1088.38 1243.35 1087.54 1244.82C1086.72 1246.28 1086.1 1248.01 1085.68 1249.99C1085.29 1251.95 1085.09 1254.09 1085.09 1256.44V1258.39C1085.09 1260.51 1085.39 1262.46 1085.97 1264.25C1086.59 1266.04 1087.45 1267.59 1088.56 1268.89C1089.7 1270.19 1091.07 1271.2 1092.66 1271.92C1094.29 1272.63 1096.13 1272.99 1098.18 1272.99C1100.72 1272.99 1103.08 1272.5 1105.26 1271.53C1107.47 1270.52 1109.38 1269 1110.97 1266.98L1117.81 1274.41C1116.7 1276 1115.19 1277.53 1113.27 1279C1111.38 1280.46 1109.1 1281.67 1106.43 1282.61C1103.76 1283.52 1100.72 1283.98 1097.3 1283.98Z" fill="black"/>
</g>
</g>
<defs>
<clipPath id="clip0_6_2">
<rect width="1477" height="292" fill="white" transform="translate(167 138)"/>
</clipPath>
<clipPath id="clip1_6_2">
<rect width="1024" height="1045" fill="white" transform="translate(408 396)"/>
</clipPath>
</defs>
</svg>
