<svg width="20" height="21" viewBox="0 0 20 21" fill="none" xmlns="http://www.w3.org/2000/svg">
<path d="M18.3334 14.5999V17.0999C18.3344 17.332 18.2868 17.5617 18.1939 17.7744C18.1009 17.987 17.9645 18.1779 17.7935 18.3348C17.6225 18.4917 17.4206 18.6112 17.2007 18.6855C16.9809 18.7599 16.7479 18.7875 16.5168 18.7666C13.9525 18.488 11.4893 17.6117 9.32511 16.2083C7.31163 14.9288 5.60455 13.2217 4.32511 11.2083C2.91676 9.03426 2.04031 6.55908 1.76677 3.98325C1.74595 3.75281 1.77334 3.52055 1.84719 3.30127C1.92105 3.08199 2.03975 2.88049 2.19575 2.7096C2.35174 2.53871 2.54161 2.40218 2.75327 2.30869C2.96492 2.2152 3.19372 2.1668 3.42511 2.16658H5.92511C6.32953 2.1626 6.7216 2.30582 7.02824 2.56953C7.33488 2.83324 7.53517 3.19946 7.59177 3.59992C7.69729 4.39997 7.89298 5.18552 8.17511 5.94158C8.28723 6.23985 8.31149 6.56401 8.24503 6.87565C8.17857 7.18729 8.02416 7.47334 7.80011 7.69992L6.74177 8.75825C7.92807 10.8445 9.65549 12.572 11.7418 13.7583L12.8001 12.6999C13.0267 12.4759 13.3127 12.3215 13.6244 12.255C13.936 12.1885 14.2602 12.2128 14.5584 12.3249C15.3145 12.607 16.1001 12.8027 16.9001 12.9083C17.3049 12.9654 17.6746 13.1693 17.9389 13.4812C18.2032 13.7931 18.3436 14.1912 18.3334 14.5999Z" stroke="#e71332" stroke-width="1.5" stroke-linecap="round" stroke-linejoin="round"/>
</svg>
